<svg id="Layer_1" data-name="Layer 1" xmlns="http://www.w3.org/2000/svg" viewBox="0 0 1227.77 248">
  <style type="text/css">
    .cls-1 {
      fill: #150af2;
    }
    .cls-2 {
      opacity: 0.4;
    }
    .cls-3 {
      fill: #0e0e9b;
    }
    .cls-4 {
      fill: #f2d820;
    }
    .cls-5 {
      fill: #fff;
    }
    .cls-6 {
      fill: #430e8e;
    }
    .cls-7 {
      fill: #444;
    }
  </style>
  <circle class="cls-1" cx="124" cy="124" r="124"/>
  <g class="cls-2"><path class="cls-3" d="M470.11,416a123.61,123.61,0,0,0-87.68,36.32L557.8,627.68A124,124,0,0,0,470.11,416Z" transform="translate(-346.11 -416)"/></g><path class="cls-3" d="M481.69,479.32s-12.14-8.27-12.59-20.83c-.54,12.56-12.75,20.74-12.75,20.74a41,41,0,0,1,12.56,27.55A41,41,0,0,1,481.69,479.32Z" transform="translate(-346.11 -416)"/><path class="cls-3" d="M473.51,567.49l-12.63,27.2H446.42l-35.25-76.41h22L454.77,565l14.57-31.79h8.46L492.36,565l21.7-46.76h22l-35.35,76.41H486.25Z" transform="translate(-346.11 -416)"/><path class="cls-4" d="M476.87,479.32s-12.14-8.27-12.59-20.83c-.54,12.56-12.75,20.74-12.75,20.74a41,41,0,0,1,12.56,27.55A41,41,0,0,1,476.87,479.32Z" transform="translate(-346.11 -416)"/><path class="cls-5" d="M466.51,567.49l-12.63,27.2H439.41l-35.25-76.41h22L447.77,565l14.57-31.79h8.46L485.36,565l21.7-46.76h22l-35.35,76.41H479.24Z" transform="translate(-346.11 -416)"/><path class="cls-6" d="M429.33,518.58" transform="translate(-346.11 -416)"/><path class="cls-7" d="M684.46,480.34l22.3,83.52,27.44-83.52H761l27.44,83.52,22.3-83.52h35.16L807.26,609.66H773l-25.38-74.95-25.38,74.95h-34.3L649.3,480.34Z" transform="translate(-346.11 -416)"/><path class="cls-7" d="M893,480.34V609.66H859.4V480.34Z" transform="translate(-346.11 -416)"/><path class="cls-7" d="M965.56,581.19h54.2v28.47H909.13l61.23-100.85H919.42V480.34h107Z" transform="translate(-346.11 -416)"/><path class="cls-7" d="M1121.8,587.19h-48l-7.72,22.47h-35.84l49.22-129.32h36.7l49.22,129.32h-35.84Zm-8.92-25.56-15.09-43-15.09,43Z" transform="translate(-346.11 -416)"/><path
    class="cls-7"
    d="M1287.64,609.66h-41.85l-32.07-49.74v49.74h-33.61V480.34h52.31a51.37,51.37,0,0,1,18.87,3.17,35.51,35.51,0,0,1,21.18,21.35,44.23,44.23,0,0,1,2.66,15.44q0,14.75-7.12,23.92t-21,12.43Zm-73.92-71.52h6.35q9.94,0,15.26-4.12t5.32-11.83q0-7.72-5.32-11.84t-15.26-4.12h-6.35Z"
    transform="translate(-346.11 -416)"/><path
    class="cls-7"
    d="M1301.71,480.34h49.74a58.69,58.69,0,0,1,24.78,5.32,67.55,67.55,0,0,1,20.24,14.15,65.73,65.73,0,0,1,13.64,20.58,63.45,63.45,0,0,1,.08,49.05,65.44,65.44,0,0,1-13.55,20.67,66.77,66.77,0,0,1-20.24,14.23,59,59,0,0,1-25,5.32h-49.74Zm33.61,100.85H1343a41.76,41.76,0,0,0,15.61-2.74,33.33,33.33,0,0,0,11.58-7.55,32.31,32.31,0,0,0,7.2-11.4,40.84,40.84,0,0,0,2.49-14.49,39.81,39.81,0,0,0-2.57-14.41,32.31,32.31,0,0,0-18.87-19,41.27,41.27,0,0,0-15.43-2.74h-7.72Z"
    transform="translate(-346.11 -416)"/><path
    class="cls-7"
    d="M1430.68,545a66.63,66.63,0,0,1,42.62-63,82.2,82.2,0,0,1,57.71,0,68.14,68.14,0,0,1,22.72,14.49,66.33,66.33,0,0,1,14.83,21.69,70.4,70.4,0,0,1,0,53.68,66.34,66.34,0,0,1-14.83,21.7A68.17,68.17,0,0,1,1531,608a82.23,82.23,0,0,1-57.71,0,66.88,66.88,0,0,1-42.62-63Zm35.16,0a34.44,34.44,0,0,0,2.91,14.23A35.61,35.61,0,0,0,1488.22,578a37.41,37.41,0,0,0,39.62-7.46,35.31,35.31,0,0,0,8-11.32,36.22,36.22,0,0,0,0-28.47,35.41,35.41,0,0,0-8-11.32,37.71,37.71,0,0,0-39.62-7.46,35.61,35.61,0,0,0-19.47,18.78A34.46,34.46,0,0,0,1465.84,545Z"
    transform="translate(-346.11 -416)"/>
  </svg>
