<svg id="Layer_1" data-name="Layer 1" xmlns="http://www.w3.org/2000/svg" viewBox="0 0 1080 540.69">
    <style type="text/css">
      .cls-1 {
        fill: #444;
      }
      .cls-2 {
        fill: #150af2;
      }
      .cls-3 {
        opacity: 0.4;
      }
      .cls-4 {
        fill: #0e0e9b;
      }
      .cls-5 {
        fill: #f2d820;
      }
      .cls-6 {
        fill: #fff;
      }
      .cls-7 {
        fill: #430e8e;
      }
    </style>
  <path class="cls-1" d="M461.07,655.52l26,97.56,32.05-97.56h31.25l32.05,97.56,26-97.56h41.07L604.51,806.58H564.44L534.79,719l-29.65,87.55H465.08L420,655.52Z" transform="translate(-420 -270.1)"/><path class="cls-1" d="M704.68,655.52V806.58H665.41V655.52Z" transform="translate(-420 -270.1)"/><path class="cls-1" d="M789.42,773.32h63.31v33.26H723.51L795,688.78h-59.5V655.52h125Z" transform="translate(-420 -270.1)"/><path class="cls-1" d="M971.92,780.33H915.82l-9,26.24H864.94l57.5-151.05h42.87l57.5,151.05H980.93ZM961.5,750.48,943.87,700.2l-17.63,50.28Z" transform="translate(-420 -270.1)"/><path
    class="cls-1"
    d="M1165.64,806.58h-48.88l-37.46-58.1v58.1H1040V655.52h61.1a60,60,0,0,1,22,3.71,41.48,41.48,0,0,1,24.74,24.94,51.66,51.66,0,0,1,3.11,18q0,17.23-8.31,27.95t-24.54,14.52ZM1079.29,723h7.41q11.62,0,17.83-4.81t6.21-13.82q0-9-6.21-13.83t-17.83-4.81h-7.41Z"
    transform="translate(-420 -270.1)"/><path
    class="cls-1"
    d="M1182.07,655.52h58.1a68.55,68.55,0,0,1,28.95,6.21,78.91,78.91,0,0,1,23.64,16.53,76.78,76.78,0,0,1,15.93,24,74.12,74.12,0,0,1,.1,57.3A76.44,76.44,0,0,1,1293,783.74a78,78,0,0,1-23.64,16.63,69,69,0,0,1-29.15,6.21h-58.1Zm39.26,117.8h9a48.78,48.78,0,0,0,18.23-3.2,38.93,38.93,0,0,0,13.52-8.82,37.74,37.74,0,0,0,8.41-13.32,47.71,47.71,0,0,0,2.9-16.93,46.5,46.5,0,0,0-3-16.83,37.74,37.74,0,0,0-22-22.24,48.21,48.21,0,0,0-18-3.21h-9Z"
    transform="translate(-420 -270.1)"/><path
    class="cls-1"
    d="M1332.72,731.05a77.83,77.83,0,0,1,49.78-73.62,96,96,0,0,1,67.41,0,79.59,79.59,0,0,1,26.54,16.93,77.48,77.48,0,0,1,17.33,25.34,82.23,82.23,0,0,1,0,62.71,77.49,77.49,0,0,1-17.33,25.34,79.63,79.63,0,0,1-26.54,16.93,96.06,96.06,0,0,1-67.41,0,78.12,78.12,0,0,1-49.78-73.62Zm41.07,0a40.23,40.23,0,0,0,3.4,16.63,41.59,41.59,0,0,0,22.74,21.94,43.7,43.7,0,0,0,46.28-8.71,41.24,41.24,0,0,0,9.31-13.22,42.31,42.31,0,0,0,0-33.26,41.36,41.36,0,0,0-9.31-13.22,44.05,44.05,0,0,0-46.28-8.71,41.59,41.59,0,0,0-22.74,21.94A40.25,40.25,0,0,0,1373.79,731.05Z"
    transform="translate(-420 -270.1)"/><circle class="cls-2" cx="540" cy="168.21" r="168.21"/>
  <g class="cls-3"><path class="cls-4" d="M960,270.1a167.68,167.68,0,0,0-118.94,49.27l237.88,237.88A168.21,168.21,0,0,0,960,270.1Z" transform="translate(-420 -270.1)"/></g><path class="cls-4" d="M975.71,356s-16.47-11.22-17.07-28.26c-.74,17-17.29,28.13-17.29,28.13a55.54,55.54,0,0,1,17,37.37A55.54,55.54,0,0,1,975.71,356Z" transform="translate(-420 -270.1)"/><path class="cls-4" d="M964.61,475.59l-17.14,36.9H927.85L880,408.85h29.85l29.3,63.43,19.76-43.12h11.47l19.76,43.12,29.44-63.43h29.85l-48,103.64H981.89Z" transform="translate(-420 -270.1)"/><path class="cls-5" d="M969.16,356s-16.47-11.22-17.07-28.26c-.74,17-17.29,28.13-17.29,28.13a55.54,55.54,0,0,1,17,37.37A55.54,55.54,0,0,1,969.16,356Z" transform="translate(-420 -270.1)"/><path class="cls-6" d="M955.11,475.59,938,512.49H918.35L870.54,408.85h29.85l29.3,63.43,19.76-43.12h11.47l19.76,43.12,29.44-63.43H1040L992,512.49H972.39Z" transform="translate(-420 -270.1)"/><path class="cls-7" d="M904.68,409.24" transform="translate(-420 -270.1)"/></svg>
