<svg id="Layer_1" data-name="Layer 1" xmlns="http://www.w3.org/2000/svg" viewBox="0 0 661.4 661.4">
    <style type="text/css">
      .cls-1 {
        fill: #150af2;
      }
      .cls-2 {
        opacity: 0.4;
      }
      .cls-3 {
        fill: #0e0e9b;
      }
      .cls-4 {
        fill: #f2d820;
      }
      .cls-5 {
        fill: #fff;
      }
      .cls-6 {
        fill: #430e8e;
      }
    </style>
    <circle class="cls-1" cx="330.7" cy="330.7" r="330.7"/>
  <g class="cls-2">
    <path class="cls-3" d="M960,209.3a329.66,329.66,0,0,0-233.84,96.86l467.68,467.68A329.66,329.66,0,0,0,1290.7,540C1290.7,357.36,1142.64,209.3,960,209.3Z" transform="translate(-629.3 -209.3)"/>
  </g>
    <path class="cls-3" d="M990.88,378.18s-32.38-22.07-33.57-55.56c-1.45,33.49-34,55.3-34,55.3,29.8,29.18,33.21,62.77,33.5,73.46C957.18,440.69,960.86,407.12,990.88,378.18Z" transform="translate(-629.3 -209.3)"/>
    <path class="cls-3" d="M969.07,613.32l-33.69,72.54H896.8l-94-203.77h58.68l57.6,124.71L957.93,522h22.55l38.85,84.77,57.87-124.71h58.68l-94.27,203.77H1003Z" transform="translate(-629.3 -209.3)"/>
    <path class="cls-4" d="M978,378.18s-32.38-22.07-33.57-55.56c-1.45,33.49-34,55.3-34,55.3,29.8,29.18,33.21,62.77,33.5,73.46C944.32,440.69,948,407.12,978,378.18Z" transform="translate(-629.3 -209.3)"/>
    <path class="cls-5" d="M950.39,613.32,916.7,685.86H878.12l-94-203.77H842.8L900.4,606.8,939.25,522H961.8l38.85,84.77,57.87-124.71h58.68l-94.27,203.77H984.35Z" transform="translate(-629.3 -209.3)"/>
    <path class="cls-6" d="M851.23,482.87" transform="translate(-629.3 -209.3)"/>
  </svg>
